<svg width="146" height="28" viewBox="0 0 146 28" fill="none" xmlns="http://www.w3.org/2000/svg">
<path fill-rule="evenodd" clip-rule="evenodd" d="M131.844 27.4062V0.195801H145.642V4.62811H136.33V11.649H144.755V16.0446H136.33V22.9739H146V27.4062H131.838H131.844Z" fill="black"/>
<path fill-rule="evenodd" clip-rule="evenodd" d="M111.306 11.8626V0.195801H115.804V11.8626H111.306Z" fill="black"/>
<path fill-rule="evenodd" clip-rule="evenodd" d="M111.306 27.412V15.623H115.804V27.412H111.306Z" fill="black"/>
<path fill-rule="evenodd" clip-rule="evenodd" d="M79.7048 26.1603H78.4179L72.2694 10.7877L69.8266 27.4119H65.251L69.6002 0H72.7222L80.0445 17.9673L88.2068 0H91.2691L95.2848 27.4119H90.6853L88.3259 10.4336L81.2062 26.1603H80.3126" fill="black"/>
<path fill-rule="evenodd" clip-rule="evenodd" d="M0 0V27.4119H4.4863V17.3568H4.73653C7.62611 17.3568 10.6825 17.1309 12.8452 15.5008C15.0735 13.8036 15.7884 11.6241 15.7884 8.88293C15.7884 6.30047 14.9782 3.49824 13.1372 2.03912C11.4332 0.671577 9.24071 0 6.72647 0H0ZM11.183 8.41282C11.183 9.75594 11.0817 11.3677 9.83054 12.2835C8.50788 13.2542 6.50007 13.2359 4.60546 13.2359H4.4863V4.58493C5.21912 4.5483 5.88045 4.52999 6.47028 4.52999C8.14445 4.52999 9.199 4.92072 9.98544 5.52512C10.7242 6.25163 11.0936 7.22845 11.1711 8.40673L11.183 8.41282Z" fill="black"/>
<path d="M34.0438 7.07044C35.6048 5.32438 37.6066 4.43914 40.1924 4.43914C42.7781 4.43914 44.7859 5.32438 46.3409 7.07044H46.3469V7.08264C47.61 8.4685 48.3845 10.123 48.6645 12.0949H53.4368C53.1151 8.99965 51.8996 6.28899 49.7608 4.04231C47.2227 1.35607 43.9935 0.00683594 40.1864 0.00683594C36.3793 0.00683594 33.1501 1.34997 30.6061 4.04231C28.4851 6.28899 27.2816 8.99965 26.9658 12.0949H31.7321C32.0062 10.123 32.7748 8.4624 34.0259 7.07655L34.0438 7.07044Z" fill="black"/>
<path d="M46.359 20.5253V20.5314C44.798 22.2775 42.7664 23.1627 40.2104 23.1627C37.6545 23.1627 35.6407 22.2836 34.0559 20.5253C32.9418 19.2738 32.2149 17.8146 31.8694 16.1113H27.0732C27.4843 18.9441 28.658 21.4411 30.6301 23.5473C33.1682 26.2397 36.3974 27.5889 40.2104 27.5889C44.0235 27.5889 47.2527 26.2458 49.7907 23.5534C51.7807 21.4472 52.9663 18.9441 53.3833 16.1113H48.5813C48.2357 17.8085 47.4969 19.2738 46.3709 20.5192L46.359 20.5253Z" fill="black"/>
</svg>
