<svg width="163" height="164" viewBox="0 0 163 164" fill="none" xmlns="http://www.w3.org/2000/svg">
<mask id="mask0_66_628" style="mask-type:alpha" maskUnits="userSpaceOnUse" x="0" y="0" width="163" height="164">
<rect y="0.669922" width="162.702" height="162.702" rx="81.3511" fill="white"/>
</mask>
<g mask="url(#mask0_66_628)">
<path d="M-97.3113 162.077H-138.839L-85.0423 128.845L-45.1959 90.5843L-45.6246 63.1192L-39.0782 45.0084L-11.337 14.0909L-10.5325 14.5201L-34.8633 48.2005L-39.3528 63.8955L-39.1023 85.9312L3.35016 44.9795L49.425 18.3389L76.622 -2.42383L78.6933 -0.741013L53.7893 22.2977L39.9981 35.061L59.8539 38.0602L77.465 32.7658L89.2618 25.0798L78.8715 33.9809L61.9878 40.9485L29.4777 44.7915L8.60553 54.5171L-65.7067 136.348L-80.6781 146.696L-97.3113 162.077Z" fill="#080808"/>
<path d="M62.9893 55.1139L61.26 55.8757L59.5066 55.4707L57.1222 55.9384L54.7088 54.0531L53.7213 52.1388L53.124 47.8908L54.2849 44.9157L57.0162 44.0381L59.5066 44.6312L61.5057 43.8115L64.4777 44.9157L65.8843 47.8185L64.9739 53.2044L62.9893 55.1139Z" fill="#080808"/>
<path d="M94.9265 22.4798L89.2617 24.2735L90.5093 19.6494L91.1211 13.6462L97.3447 9.60071L100.731 8.76172L100.635 15.7485L98.8717 19.3842L94.9265 22.4798Z" fill="#080808"/>
<path d="M93.2503 24.2734L89.1221 24.6061L91.2368 27.2196L93.3466 30.8745L98.4719 31.8244L100.876 31.4772L98.8139 27.0604L96.6511 25.2089L93.2503 24.2734Z" fill="#080808"/>
<path d="M67.9851 31.8111L70.1824 34.1912L67.603 34.6358L64.4887 35.7055L61.0477 33.5661L59.8516 32.0936L63.3347 30.54L65.5453 30.5793L67.9851 31.8111Z" fill="#080808"/>
<path d="M68.6258 30.8272L70.6731 34.4339L72.1471 31.4106L74.57 27.9582L73.2694 22.9001L71.9399 20.8701L68.8089 24.6022L68.043 27.3458L68.6258 30.8272Z" fill="#080808"/>
<path d="M84.6274 31.6084L80.7256 32.9923L83.4376 34.9789L86.4145 37.9684L91.6121 37.5682L93.8424 36.6183L90.7209 32.8765L88.1535 31.6422L84.6274 31.6084Z" fill="#080808"/>
<path d="M-0.839152 12.761L-6.50879 14.5548L-5.26118 9.93064L-4.64942 3.92747L1.57418 -0.118036L4.96055 -0.957031L4.86421 6.03461L3.10119 9.67026L-0.839152 12.761Z" fill="#080808"/>
<path d="M75.7549 51.1217L74.0207 51.8835L72.2673 51.4737L69.8829 51.9414L67.4744 50.0609L66.4821 48.1466L65.8848 43.8938L67.0457 40.9187L69.7769 40.046L72.2673 40.6342L74.2664 39.8193L77.2385 40.9187L78.6451 43.8263L77.7347 49.2074L75.7549 51.1217Z" fill="#080808"/>
<path d="M-0.0569387 23.0443L-3.76242 24.7907L-3.3057 21.6181L-3.39682 17.5976L0.498338 14.3103L2.73157 13.4245L3.26206 18.0452L2.36597 20.6176L-0.0569387 23.0443Z" fill="#080808"/>
<path d="M70.6149 44.7816L72.0986 39.2028L70.2344 34.8969L71.3086 34.8535L73.1824 39.3571L71.6891 44.7382L70.6149 44.7816Z" fill="#080808"/>
<path d="M57.9078 48.7739L59.3915 43.195L57.5225 38.8892L58.6015 38.8506L60.4753 43.3493L58.982 48.7353L57.9078 48.7739Z" fill="#080808"/>
<path d="M75.418 29.1736L75.6973 31.6568L77.234 30.3356L79.3968 28.9952L79.8737 25.8851L79.6232 24.4434L76.998 25.7645L75.9238 27.105L75.418 29.1736Z" fill="#080808"/>
<path d="M18.7306 66.9906L15.9512 72.3091L20.7393 71.9909L26.7799 72.5791L31.8859 67.1546L33.3166 63.9288L26.3945 62.6221L22.4879 63.6636L18.7306 66.9906Z" fill="#080808"/>
<path d="M-18.6442 68.4033L-28.9863 76.6486L-8.16232 75.3082L10.311 78.1482L16.3419 85.9499L22.0212 89.7399L35.8364 92.9223L35.9424 92.6378L22.3584 88.004L17.7292 84.4889L12.8688 78.2447L32.5897 81.3258L50.0178 79.6671L61.4293 80.1011L61.569 79.2187L50.2201 77.6902L43.9338 76.8415L48.2065 72.0583L53.775 70.0476L58.4283 69.8692L53.8521 69.4304L48.0909 70.8191L39.1361 76.1954L31.766 77.6034L-5.02643 69.3629L-11.067 69.4256L-18.6442 68.4033Z" fill="#080808"/>
<path d="M64.2663 70.964L58.7412 68.7749L62.6285 65.9782L66.8916 61.7109L74.2665 62.5065L77.4216 63.9965L72.937 69.3583L69.2761 71.0604L64.2663 70.964Z" fill="#080808"/>
<path d="M56.5633 66.3402L58.5865 68.4039L59.0441 66.1039L60.0605 63.341L58.283 60.1634L57.0258 59.0303L55.5759 62.1066L55.5518 64.0932L56.5633 66.3402Z" fill="#080808"/>
<path d="M63.8133 84.6671L62.3008 80.6602L65.6583 81.2147L69.9743 81.1954L73.1246 85.4289L73.8665 87.8398L68.8616 88.3124L66.1881 87.3046L63.8133 84.6671Z" fill="#080808"/>
<path d="M49.2129 93.5543L47.4787 94.3162L45.7253 93.9111L43.3409 94.3788L40.9324 92.4935L39.9401 90.5792L39.3428 86.3312L40.5085 83.3562L43.2349 82.4786L45.7253 83.0717L47.7244 82.252L50.6965 83.3562L52.1079 86.2589L51.1927 91.6449L49.2129 93.5543Z" fill="#080808"/>
<path d="M43.9772 86.6538L45.4609 81.0798L43.5967 76.7739L44.6709 76.7305L46.5447 81.2292L45.0514 86.6152L43.9772 86.6538Z" fill="#080808"/>
<path d="M76.0351 118.911L74.301 119.673L72.5476 119.268L70.1632 119.735L67.7547 117.85L66.7624 115.936L66.165 111.688L67.3308 108.713L70.0572 107.835L72.5476 108.428L74.5467 107.608L77.5188 108.713L78.9302 111.615L78.0149 117.001L76.0351 118.911Z" fill="#080808"/>
<path d="M70.7992 112.011L72.2829 106.437L70.5039 100.19L71.5781 100.147L73.3667 106.587L71.8734 111.973L70.7992 112.011Z" fill="#080808"/>
<path d="M38.8652 73.2729L40.5271 75.139L41.0136 73.1669L42.0011 70.8235L40.5945 68.0075L39.554 66.9805L38.1812 69.5746L38.0752 71.2912L38.8652 73.2729Z" fill="#080808"/>
<path d="M40.6143 70.6511L40.8888 73.1343L42.4255 71.8083L44.5883 70.4727L45.07 67.3626L44.8147 65.9209L42.1942 67.2421L41.1152 68.5825L40.6143 70.6511Z" fill="#080808"/>
<path d="M10.7148 52.4773L14.1349 25.5426L18.8219 8.87356L31.0138 -6.91309L31.8134 -6.47912L21.0474 10.0935L16.5579 25.7885L16.8084 47.8242L10.7148 52.4773Z" fill="#080808"/>
<path d="M10.3294 22.3594L14.1637 23.9313L13.4556 20.6428L13.234 16.4286L9.08657 13.2558L6.78885 12.4795L6.62988 17.3495L7.72336 19.9822L10.3294 22.3594Z" fill="#080808"/>
<path d="M25.8275 22.792L30.6077 23.6246L27.9817 26.5952L25.3007 30.8349L19.2783 31.4694L16.5068 30.7985L19.18 25.6212L21.8138 23.5882L25.8275 22.792Z" fill="#080808"/>
<path d="M26.1575 18.3072L27.7363 15.5981L25.2102 15.7733L22.049 15.4922L19.2435 18.2597L18.416 19.8991L22.0309 20.5453L24.1069 20.005L26.1575 18.3072Z" fill="#080808"/>
<path d="M17.8783 8.23126L17.5074 12.19L14.9255 10.2034L11.3031 8.24091L10.3975 3.34194L10.7636 1.03711L15.1422 2.94173L16.9727 4.98618L17.8783 8.23126Z" fill="#080808"/>
<path d="M34.0079 13.7867L32.2737 14.5437L30.5203 14.1387L28.1407 14.6064L25.7274 12.721L24.7351 10.8068L24.1426 6.55875L25.3035 3.58369L28.0347 2.70612L30.5203 3.2992L32.5194 2.47949L35.4963 3.58369L36.9029 6.48642L35.9876 11.8724L34.0079 13.7867Z" fill="#080808"/>
<path d="M80.4971 16.6031L78.7678 17.365L77.0096 16.9599L74.63 17.4277L72.2166 15.5423L71.2243 13.6281L70.6318 9.38004L71.7927 6.40498L74.524 5.52741L77.0096 6.12049L79.0135 5.30078L81.9856 6.40498L83.3922 9.30772L82.4817 14.6937L80.4971 16.6031Z" fill="#080808"/>
<path d="M28.6568 6.43796L30.1405 0.85911L28.2715 -3.44678L29.3505 -3.48535L31.2243 1.01341L29.731 6.39456L28.6568 6.43796Z" fill="#080808"/>
<path d="M75.1667 9.35788L76.6503 3.77903L74.7861 -0.526855L75.8603 -0.56543L77.7342 3.93333L76.2457 9.31931L75.1667 9.35788Z" fill="#080808"/>
<path d="M74.4063 38.4694L72.5518 36.7432L74.5267 36.2321L76.8726 35.2002L79.681 36.6564L80.7022 37.7317L78.0962 39.1686L76.3813 39.2795L74.4063 38.4694Z" fill="#080808"/>
<path d="M19.4246 6.22081L18.2733 7.677L17.8205 6.29313L16.9775 4.68264L17.8976 2.56104L18.625 1.75098L19.7666 3.52058L19.9207 4.74533L19.4246 6.22081Z" fill="#080808"/>
<path d="M329.928 197.802H377.469L315.883 159.758L270.267 115.957L270.757 84.5149L263.263 63.7817L231.505 28.3875L230.584 28.8787L258.438 67.436L263.577 85.4036L263.291 110.63L214.691 63.7486L161.945 33.2506L130.81 9.48145L129.89 10.4323L156.949 37.7825L172.737 52.394L150.006 55.8274L129.845 49.7664L116.34 40.9675L128.235 51.1575L147.563 59.1339L184.781 63.5333L208.675 74.6672L293.747 168.347L310.886 180.193L329.928 197.802Z" fill="#080808"/>
<path d="M146.416 75.351L148.396 76.2232L150.403 75.7595L153.133 76.2949L155.896 74.1366L157.026 71.9452L157.71 67.082L156.381 63.6762L153.254 62.6716L150.403 63.3505L148.115 62.4121L144.712 63.6762L143.102 66.9992L144.144 73.1651L146.416 75.351Z" fill="#080808"/>
<path d="M112.318 38.8809L116.604 40.2606L115.66 36.7038L115.197 32.0862L110.488 28.9744L107.926 28.3291L107.999 33.7033L109.333 36.4998L112.318 38.8809Z" fill="#080808"/>
<path d="M111.774 40.0459L116.5 40.4268L114.079 43.4186L111.664 47.6028L105.796 48.6902L103.045 48.2928L105.405 43.2365L107.881 41.1168L111.774 40.0459Z" fill="#080808"/>
<path d="M142.612 48.095L139.382 51.5934L143.173 52.247L147.751 53.8193L152.809 50.6746L154.567 48.5102L149.447 46.2266L146.198 46.2842L142.612 48.095Z" fill="#080808"/>
<path d="M139.965 47.5472L137.621 51.6762L135.933 48.2152L133.16 44.2628L134.649 38.4724L136.171 36.1484L139.755 40.4209L140.632 43.5618L139.965 47.5472Z" fill="#080808"/>
<path d="M121.646 48.4414L126.112 50.0256L123.008 52.2999L119.6 55.7223L113.649 55.2641L111.096 54.1767L114.67 49.8932L117.609 48.48L121.646 48.4414Z" fill="#080808"/>
<path d="M131.803 70.7807L133.789 71.6528L135.796 71.1836L138.525 71.7191L141.283 69.5663L142.419 67.3748L143.103 62.5062L141.774 59.1004L138.647 58.1012L135.796 58.7747L133.507 57.8418L130.105 59.1004L128.495 62.4289L129.537 68.5892L131.803 70.7807Z" fill="#080808"/>
<path d="M137.687 63.5219L135.989 57.1353L138.123 52.2059L136.893 52.1562L134.748 57.3119L136.458 63.4723L137.687 63.5219Z" fill="#080808"/>
<path d="M152.235 68.0926L150.536 61.7059L152.676 56.7766L151.441 56.7324L149.295 61.8826L151.005 68.0484L152.235 68.0926Z" fill="#080808"/>
<path d="M146.492 123.704L148.472 124.576L150.479 124.112L153.209 124.647L155.972 122.489L157.102 120.298L157.786 115.435L156.457 112.029L153.33 111.024L150.479 111.703L148.191 110.765L144.788 112.029L143.178 115.352L144.22 121.518L146.492 123.704Z" fill="#080808"/>
<path d="M152.31 114.532L150.611 108.145L152.751 103.216L151.516 103.172L149.371 108.322L151.08 114.488L152.31 114.532Z" fill="#080808"/>
<path d="M101.478 100.64L103.457 101.512L105.465 101.049L108.194 101.584L110.957 99.4257L112.088 97.2342L112.771 92.3711L111.442 88.9653L108.316 87.9606L105.465 88.6396L103.176 87.7012L99.7738 88.9653L98.1635 92.2883L99.2058 98.4541L101.478 100.64Z" fill="#080808"/>
<path d="M107.296 93.3807L105.598 86.994L107.737 82.0647L106.502 82.0205L104.357 87.1707L106.066 93.3365L107.296 93.3807Z" fill="#080808"/>
<path d="M132.188 45.6534L131.869 48.4962L130.11 46.9837L127.633 45.4492L127.088 41.8888L127.374 40.2383L130.38 41.7508L131.609 43.2853L132.188 45.6534Z" fill="#080808"/>
<path d="M148.038 94.3927L147.621 97.4863L145.948 95.7006L143.569 93.8506L143.161 89.9129L143.508 88.1246L146.406 89.9922L147.559 91.7579L148.038 94.3927Z" fill="#080808"/>
<path d="M151.063 97.6718L149.736 99.2947L149.255 97.6631L148.341 95.7335L149.417 93.322L150.252 92.4214L151.5 94.5491L151.647 95.9826L151.063 97.6718Z" fill="#080808"/>
<path d="M143.858 109.318L145.348 105.342L142.041 105.892L137.791 105.873L134.689 110.074L133.958 112.466L138.887 112.935L141.52 111.935L143.858 109.318Z" fill="#080808"/>
<path d="M123.362 11.0787L129.743 8.70558L125.361 5.41018L120.577 0.425668L112.111 1.15632L108.468 2.7801L113.47 9.02219L117.629 11.0634L123.362 11.0787Z" fill="#080808"/>
<path d="M134.788 8.44049L130.161 9.48377L131.578 5.90681L132.632 1.19273L137.915 -1.60039L140.655 -2.04199L139.916 3.48905L138.179 6.25457L134.788 8.44049Z" fill="#080808"/>
<path d="M123.714 27.7104L125.694 28.5825L127.707 28.1189L130.431 28.6543L133.194 26.496L134.33 24.3045L135.008 19.4414L133.679 16.0356L130.552 15.0309L127.707 15.7099L125.413 14.7715L122.01 16.0356L120.4 19.3586L121.442 25.5245L123.714 27.7104Z" fill="#080808"/>
<path d="M130.39 21.7918L128.691 15.4052L130.825 10.4758L129.595 10.4316L127.45 15.5818L129.154 21.7476L130.39 21.7918Z" fill="#080808"/>
<path d="M133.348 56.2963L135.471 54.3201L133.21 53.735L130.524 52.5537L127.309 54.2208L126.14 55.4517L129.123 57.0967L131.087 57.2236L133.348 56.2963Z" fill="#080808"/>
<path d="M217.664 292.711H265.205L203.619 254.667L158.003 210.866L158.494 179.424L150.999 158.691L116.061 121.341L115.14 121.832L146.174 162.345L151.314 180.313L151.027 205.539L102.428 158.658L49.6812 128.16L16.5631 103.754L16.1701 104.821L44.6851 132.692L69.6912 149.542L37.7423 150.737L17.5813 144.676L4.0762 135.877L15.971 146.067L35.2994 154.043H77.5552L96.4113 169.577L181.484 263.257L198.623 275.102L217.664 292.711Z" fill="#080808"/>
<path d="M34.1526 170.261L36.1323 171.133L38.1396 170.67L40.8692 171.205L43.632 169.047L44.7625 166.855L45.4463 161.992L44.1173 158.586L40.9906 157.582L38.1396 158.261L35.851 157.322L32.4486 158.586L30.8383 161.909L31.8806 168.075L34.1526 170.261Z" fill="#080808"/>
<path d="M-2.4089 132.902L4.07617 134.955L2.64791 129.661L1.94756 122.789L-5.17719 118.158L-9.05389 117.197L-8.94361 125.196L-6.92529 129.358L-2.4089 132.902Z" fill="#080808"/>
<path d="M-0.490594 134.955L4.23535 135.336L1.81447 138.328L-0.600891 142.512L-6.46833 143.599L-9.22008 143.202L-6.85985 138.146L-4.38384 136.026L-0.490594 134.955Z" fill="#080808"/>
<path d="M30.3693 141.579L25.7702 146.602L31.1689 147.541L37.687 149.798L44.889 145.283L47.3926 142.175L40.1024 138.896L35.4757 138.979L30.3693 141.579Z" fill="#080808"/>
<path d="M27.6999 142.457L25.3563 146.586L23.6688 143.125L20.895 139.173L22.384 133.383L23.9059 131.059L27.4904 135.331L28.3672 138.472L27.6999 142.457Z" fill="#080808"/>
<path d="M9.38089 143.351L13.8477 144.935L10.743 147.209L7.33501 150.631L1.38485 150.173L-1.16838 149.086L2.40504 144.802L5.34426 143.389L9.38089 143.351Z" fill="#080808"/>
<path d="M109.142 118.876L115.633 120.93L114.205 115.636L113.504 108.764L106.379 104.132L102.503 103.172L102.613 111.176L104.631 115.338L109.142 118.876Z" fill="#080808"/>
<path d="M125.519 128.708L127.367 132.614L129.191 129.655L132.056 126.346L131.119 121.023L129.891 118.802L126.254 122.325L125.206 125.073L125.519 128.708Z" fill="#080808"/>
<path d="M120.608 117.828L117.005 120.921L116.588 117.093L115.315 112.435L118.675 107.49L120.894 105.818L122.823 111.046L122.584 114.303L120.608 117.828Z" fill="#080808"/>
<path d="M140.885 156.753L144.006 160.325L140.184 160.783L135.541 162.102L130.572 158.785L128.88 156.582L134.091 154.601L137.344 154.81L140.885 156.753Z" fill="#080808"/>
<path d="M136.959 167.474L134.56 163.378L138.399 163.643L143.207 163.218L147.47 167.402L148.722 169.88L143.235 170.857L140.075 170.04L136.959 167.474Z" fill="#080808"/>
<path d="M143.497 145.426L146.067 147.884L146.58 145.155L147.776 141.889L145.483 138.118L143.888 136.768L142.162 140.405L142.179 142.759L143.497 145.426Z" fill="#080808"/>
<path d="M147.613 148.142L148.038 152.674L150.999 150.4L155.146 148.153L156.183 142.545L155.764 139.912L150.745 142.087L148.655 144.433L147.613 148.142Z" fill="#080808"/>
<path d="M19.5387 165.691L21.5239 166.563L23.5312 166.094L26.2608 166.629L29.0181 164.476L30.1541 162.285L30.8379 157.416L29.5089 154.011L26.3822 153.011L23.5312 153.685L21.2426 152.752L17.8402 154.011L16.2299 157.339L17.2722 163.499L19.5387 165.691Z" fill="#080808"/>
<path d="M119.986 153.076L121.965 153.948L123.973 153.484L126.702 154.02L129.465 151.861L130.596 149.67L131.279 144.807L129.95 141.401L126.824 140.396L123.973 141.075L121.684 140.137L118.282 141.401L116.671 144.724L117.714 150.89L119.986 153.076Z" fill="#080808"/>
<path d="M109.607 141.059L111.592 141.931L113.6 141.462L116.329 141.997L119.086 139.845L120.222 137.653L120.906 132.785L119.577 129.379L116.451 128.38L113.6 129.059L111.311 128.12L107.909 129.379L106.298 132.707L107.341 138.868L109.607 141.059Z" fill="#080808"/>
<path d="M110.531 125.641L114.209 122.732L110.724 121.584L106.649 119.442L101.294 121.761L99.2481 123.599L103.715 126.497L106.809 126.889L110.531 125.641Z" fill="#080808"/>
<path d="M25.4227 158.431L23.7243 152.044L25.8584 147.115L24.6287 147.065L22.4835 152.221L24.193 158.381L25.4227 158.431Z" fill="#080808"/>
<path d="M39.97 163.002L38.2715 156.615L40.4111 151.686L39.1759 151.642L37.0307 156.792L38.7402 162.958L39.97 163.002Z" fill="#080808"/>
<path d="M125.899 144.653L124.201 138.266L126.335 133.337L125.105 133.287L122.96 138.443L124.664 144.603L125.899 144.653Z" fill="#080808"/>
<path d="M115.746 133.52L114.048 127.133L116.188 122.204L114.958 122.154L112.807 127.31L114.517 133.47L115.746 133.52Z" fill="#080808"/>
<path d="M19.9248 140.564L19.605 143.406L17.8458 141.894L15.3698 140.359L14.8239 136.799L15.1106 135.148L18.116 136.661L19.3458 138.195L19.9248 140.564Z" fill="#080808"/>
<path d="M93.9951 167.242L90.0798 136.407L86.6102 114.25L70.757 99.252L69.8415 99.7488L84.0624 115.646L87.306 136.689L87.0193 161.915L93.9951 167.242Z" fill="#080808"/>
<path d="M9.22231 101.716L15.7129 103.77L14.2846 98.4759L13.5788 91.6035L6.45403 86.9722L2.58283 86.0117L2.68761 94.0102L4.71144 98.1778L9.22231 101.716Z" fill="#080808"/>
<path d="M93.7161 133.027L90.0584 134.522L90.7339 131.394L90.9453 127.386L94.9016 124.368L97.0935 123.63L97.2451 128.262L96.202 130.766L93.7161 133.027Z" fill="#080808"/>
<path d="M79.647 132.446L75.1422 132.11L76.8725 135.309L78.3772 139.637L83.6871 141.54L86.3397 141.569L85.0458 136.418L83.1047 134.042L79.647 132.446Z" fill="#080808"/>
<path d="M22.4997 102.586L17.8731 103.629L19.2903 100.052L20.3436 95.3382L25.6265 92.5451L28.3672 92.1035L27.6282 97.6346L25.8912 100.4L22.4997 102.586Z" fill="#080808"/>
<path d="M78.2894 125.643L77.6961 122.387L80.147 123.477L83.3948 124.346L85.188 128.105L85.4197 130.028L81.5886 129.357L79.7174 128.069L78.2894 125.643Z" fill="#080808"/>
<path d="M74.8431 99.5127L75.913 104.078L78.4331 101.412L82.1003 98.6295L82.2822 92.7948L81.4881 90.1562L76.9718 92.9715L75.3008 95.6045L74.8431 99.5127Z" fill="#080808"/>
<path d="M87.4753 114.78L87.7871 118.128L89.9575 116.448L93.0024 114.788L93.7637 110.645L93.4559 108.695L89.7752 110.306L88.2366 112.035L87.4753 114.78Z" fill="#080808"/>
<path d="M10.9074 123.704L12.8871 124.576L14.8999 124.112L17.6241 124.647L20.3869 122.489L21.5229 120.298L22.2012 115.435L20.8722 112.029L17.7454 111.024L14.8999 111.703L12.6059 110.765L9.20345 112.029L7.5932 115.352L8.63546 121.518L10.9074 123.704Z" fill="#080808"/>
<path d="M65.464 98.4794L70.1514 98.5622L68.1827 95.4599L66.3905 91.2151L60.7822 89.6143L58.0305 89.7357L59.6517 94.8086L61.7969 97.0773L65.464 98.4794Z" fill="#080808"/>
<path d="M17.0409 116.16L15.3424 109.773L17.4766 104.844L16.2468 104.8L14.1017 109.95L15.8057 116.116L17.0409 116.16Z" fill="#080808"/>
<path d="M66.5192 103.333L69.1992 101.362L66.7563 100.457L63.9218 98.834L60.0727 100.341L58.5728 101.594L61.6609 103.758L63.8446 104.117L66.5192 103.333Z" fill="#080808"/>
<path d="M11.7909 156.263L10.5854 153.625L9.31689 155.586L7.34873 157.761L7.91644 161.338L8.71574 162.836L11.2178 160.524L11.9576 158.701L11.7909 156.263Z" fill="#080808"/>
<path d="M84.6303 109.917L85.9482 111.584L86.4666 110L87.4316 108.156L86.3784 105.727L85.5457 104.8L84.2387 106.826L84.0623 108.228L84.6303 109.917Z" fill="#080808"/>
<path d="M138.674 89.6323L136.672 94.2093L134.385 90.9502L130.857 87.3563L131.715 81.2211L133.062 78.6098L137.515 82.3973L138.875 85.4653L138.674 89.6323Z" fill="#080808"/>
<path d="M170.938 109.758L175.396 122.959L157.734 110.059L139.773 102.226L129.997 105.831L122.815 106.037L112.197 100.775L112.265 100.46L123.504 104.292L129.601 103.742L137.455 100.876L118.252 92.5583L103.776 81.2807L93.4317 75.2588L93.8103 74.3894L104.722 79.3951L110.767 82.1659L109.708 75.4783L105.926 70.5478L101.91 67.7737L106.209 69.9513L110.516 74.4325L115.38 84.2821L121.099 89.6845L158.343 102.968L163.652 106.418L170.938 109.758Z" fill="#080808"/>
<path d="M39.243 97.7087L41.7598 97.7489L40.7027 96.2446L39.7404 94.1864L36.7292 93.4102L35.2517 93.469L36.1222 95.9288L37.274 97.0289L39.243 97.7087Z" fill="#080808"/>
<path d="M50.9079 103.132L48.8105 103.172L49.6914 101.668L50.4933 99.6092L53.0027 98.833L54.234 98.8919L53.5085 101.352L52.5487 102.452L50.9079 103.132Z" fill="#080808"/>
<path d="M53.973 118.671L55.8823 121.07L56.6332 118.79L58.0312 116.137L56.5054 112.642L55.2991 111.308L53.4058 114.223L53.1502 116.24L53.973 118.671Z" fill="#080808"/>
<path d="M37.3172 109.782L40.5555 109.184L38.7608 107.327L36.9343 104.669L32.8443 104.353L30.9708 104.822L32.7992 108.079L34.592 109.337L37.3172 109.782Z" fill="#080808"/>
<path d="M57.4456 120.171L56.8348 122.836L58.8417 122.08L61.4688 121.563L63.0571 118.55L63.3167 116.967L60.2315 117.288L58.6827 118.24L57.4456 120.171Z" fill="#080808"/>
<path d="M64.5387 137.068L59.4471 140.351L56.455 130.243L52.0649 122.968L46.9126 120.793L44.2039 118.9L39.8622 109.951L40.3148 109.409L45.0297 118.021L47.5259 119.593L51.373 120.793L46.4502 111.99L44.2039 103.435L42.0031 98.1022L42.4024 97.88L45.1179 102.989L46.623 105.819L48.1739 102.948L48.1672 99.9524L47.9973 99.1046L48.4501 99.8067L48.7891 102.783L47.7709 107.979L48.3816 111.722L58.7624 127.705L59.7869 130.579L64.5387 137.068Z" fill="#080808"/>
<path d="M44.9599 54.6468L43.4617 56.9253L45.5041 56.8644L48.0179 57.2239L50.5023 54.9365L51.3034 53.5492L48.4614 52.8638L46.748 53.2549L44.9599 54.6468Z" fill="#080808"/>
<path d="M34.1992 61.0786L35.2159 59.4022L36.0118 60.8817L37.3028 62.5877L36.6852 64.973L36.0205 65.9142L34.3612 64.0592L33.937 62.7281L34.1992 61.0786Z" fill="#080808"/>
<path d="M42.9338 61.3496L41.217 61.9278L42.4867 63.1938L43.8967 65.0451L46.2195 65.092L47.197 64.6689L45.7009 62.3878L44.5162 61.555L42.9338 61.3496Z" fill="#080808"/>
<path d="M19.7449 55.4038L17.6313 55.6242L18.6917 56.9103L19.732 58.7126L22.3472 59.1236L23.5763 58.917L22.5653 56.7284L21.4756 55.8286L19.7449 55.4038Z" fill="#080808"/>
<path d="M17.7022 56.8686L16.5525 55.7073L16.2918 56.9623L15.712 58.4538L16.7246 60.2198L17.4403 60.8573L18.2658 59.1974L18.2807 58.1108L17.7022 56.8686Z" fill="#080808"/>
<path d="M-1.19445 54.9402L-1.24025 48.8823L8.89882 51.7681L17.3939 51.9563L19.6011 52.5365L29.6719 53.093L38.0996 55.7768L43.7818 56.7737L43.7557 57.23L37.9865 56.7873L34.7907 56.5431L36.3852 59.3905L38.9184 60.9888L41.1971 61.5731L38.89 61.3057L36.1946 59.9982L32.3518 56.356L28.864 54.8676L9.80672 55.0759L6.83046 54.402L-1.19445 54.9402Z" fill="#080808"/>
<path d="M151.295 133.02L155.133 133.431L153.735 130.899L152.56 127.502L148.073 125.855L145.808 125.744L146.784 129.765L148.385 131.669L151.295 133.02Z" fill="#080808"/>
<path d="M161.247 131.762L163.086 133.549L163.859 131.131L165.277 128.158L163.833 125.203L162.667 124.246L160.764 127.606L160.482 129.636L161.247 131.762Z" fill="#080808"/>
<path d="M181.736 191.466L174.139 195.445L171.211 180.812L165.95 169.995L165.252 166.841L159.435 153.802L157.359 141.455L154.937 133.656L155.528 133.394L158.705 140.943L160.465 145.125L163.018 141.275L163.391 137.051L162.652 133.804L163.808 136.882L163.907 141.121L161.808 148.316L162.192 153.671L174.787 177.528L175.865 181.712L181.736 191.466Z" fill="#080808"/>
<path d="M4.80839 157.842L4.28835 156.307L3.51049 157.313L2.34536 158.39L2.4803 160.404L2.84108 161.284L4.29843 160.163L4.78406 159.201L4.80839 157.842Z" fill="#080808"/>
<path d="M23.8637 146.831L25.4369 149.516L17.4686 150.578L11.4698 153.028L9.74975 153.293L2.53689 155.963L-4.17312 156.647L-8.45022 157.676L-8.5706 157.349L-4.40103 155.906L-2.09163 155.106L-4.07206 153.599L-6.32947 153.251L-8.10076 153.534L-6.40588 153.02L-4.12335 153.116L-0.328939 154.496L2.56276 154.477L15.8285 148.54L18.115 148.108L23.8637 146.831Z" fill="#080808"/>
<path d="M160.562 21.7561L162.186 24.4055L163.214 22.1954L164.935 19.6862L163.828 15.9769L162.78 14.4858L160.531 17.2L160.031 19.205L160.562 21.7561Z" fill="#080808"/>
<path d="M175.565 54.5005L167.603 58.3819L165.015 43.1861L159.905 31.8605L159.278 28.5828L153.66 14.9462L151.885 2.13544L149.616 -5.98929L150.234 -6.24264L153.289 1.64733L154.983 6.01729L157.733 2.11783L158.244 -2.23208L157.578 -5.60668L158.68 -2.39447L158.655 1.98607L156.274 9.35279L156.511 14.8927L168.806 39.902L169.794 44.2534L175.565 54.5005Z" fill="#080808"/>
<path d="M50.6955 9.06492L50.1787 11.1467L51.7636 10.582L53.8315 10.2136L55.1199 7.87259L55.3458 6.63505L52.9214 6.84302L51.6931 7.56817L50.6955 9.06492Z" fill="#080808"/>
<path d="M51.3844 11.5079L49.8873 12.2003L50.989 12.8788L52.2054 13.9413L54.2294 13.5868L55.0802 13.1265L53.7883 11.7729L52.7621 11.3855L51.3844 11.5079Z" fill="#080808"/>
<path d="M43.0637 28.7804L37.2983 26.7433L43.5196 18.1112L46.6158 10.1129L47.9245 8.21729L51.9116 -1.15003L57.3533 -8.22726L60.251 -13.2779L60.6751 -13.0964L58.2736 -7.77282L56.9442 -4.82349L60.1944 -5.35895L62.5813 -7.21436L63.9185 -9.17646L62.8724 -7.0785L60.7056 -4.96933L55.9289 -2.57294L53.3184 0.226257L46.9709 18.3856L45.309 20.9789L43.0637 28.7804Z" fill="#080808"/>
<path d="M144.137 82.7761L146.883 82.5922L145.589 80.9864L144.346 78.7449L140.991 78.141L139.387 78.3422L140.568 81.0463L141.927 82.1862L144.137 82.7761Z" fill="#080808"/>
<path d="M154.571 83.8917L154.178 82.5638L153.175 83.498L151.721 84.5229L151.619 86.2961L151.915 87.0548L153.7 85.9763L154.37 85.0948L154.571 83.8917Z" fill="#080808"/>
<path d="M156.864 94.2029L158.329 95.7688L158.718 94.1317L159.533 92.1961L158.27 89.8417L157.354 88.9789L156.21 91.1265L156.15 92.5517L156.864 94.2029Z" fill="#080808"/>
<path d="M159.289 94.9529L159.056 96.5857L160.224 96.0303L161.778 95.5874L162.581 93.6962L162.658 92.7319L160.819 93.0798L159.936 93.7301L159.289 94.9529Z" fill="#080808"/>
<path d="M169.257 111.33L164.412 115.06L160.552 105.144L155.524 98.1959L154.645 96.0667L148.954 87.6259L145.975 79.2101L143.312 74.0314L143.695 73.7743L146.856 78.6851L148.608 81.4048L149.927 78.3862L150.532 78.1691L149.945 83.4809L150.874 87.194L162.659 102.398L163.932 105.203L169.257 111.33Z" fill="#080808"/>
<path d="M126.342 33.5855L128.196 31.587L126.173 31.3092L123.754 30.5388L120.926 32.383L119.907 33.6182L122.595 34.7641L124.349 34.6619L126.342 33.5855Z" fill="#080808"/>
<path d="M145.195 35.9988L147.315 36.1312L146.482 34.6878L145.755 32.7388L143.245 31.9009L141.999 31.9013L142.633 34.2263L143.559 35.2937L145.195 35.9988Z" fill="#080808"/>
<path d="M147.453 34.8907L148.394 36.2258L148.859 35.0316L149.677 33.6571L148.971 31.7485L148.371 31.0016L147.282 32.5015L147.088 33.5703L147.453 34.8907Z" fill="#080808"/>
<path d="M172.979 41.0035L172.022 46.9835L162.504 42.461L154.16 40.8701L152.079 39.933L142.243 37.7182L134.378 33.678L128.941 31.7551L129.042 31.3096L134.657 32.7005L137.767 33.4699L136.666 30.3989L135.043 28.8703L135.043 28.5991L136.954 29.8314L140.14 34.0579L143.333 36.1023L162.156 39.0497L164.979 40.2065L172.979 41.0035Z" fill="#080808"/>
<path d="M95.8272 65.7973L101.86 66.7698L100.178 62.0504L99.0415 55.758L92.2451 52.4814L88.6583 52.1492L89.3378 59.5807L91.4727 63.1584L95.8272 65.7973Z" fill="#080808"/>
<path d="M105.687 65.7832L102.686 66.4237L103.552 64.136L104.165 61.117L107.564 59.3547L109.345 59.088L108.953 62.6341L107.866 64.3947L105.687 65.7832Z" fill="#080808"/>
<path d="M88.9297 78.1533L92.5303 75.3936L89.2902 74.0346L85.5423 71.6307L80.3862 73.6882L78.3663 75.4417L82.4559 78.6334L85.3585 79.2073L88.9297 78.1533Z" fill="#080808"/>
<path d="M117.283 82.3344L114.669 83.0255L115.339 80.9665L115.754 78.2774L118.671 76.5821L120.228 76.2763L120.03 79.4189L119.15 81.023L117.283 82.3344Z" fill="#080808"/>
<path d="M117.331 78.8287L115.576 81.0317L114.956 78.867L113.764 76.3254L115.198 73.0815L116.306 71.8588L117.931 74.6553L118.118 76.5651L117.331 78.8287Z" fill="#080808"/>
</g>
</svg>
